<mxfile host="Electron" modified="2024-04-08T14:28:09.781Z" agent="Mozilla/5.0 (Windows NT 10.0; Win64; x64) AppleWebKit/537.36 (KHTML, like Gecko) draw.io/24.1.0 Chrome/120.0.6099.109 Electron/28.1.0 Safari/537.36" etag="93WYIh6YY1Bb2xd6_Mbm" version="24.1.0" type="device">
  <diagram name="Страница — 1" id="ghp60qIPcDcPIbmyIKLL">
    <mxGraphModel dx="428" dy="624" grid="1" gridSize="10" guides="1" tooltips="1" connect="1" arrows="1" fold="1" page="1" pageScale="1" pageWidth="827" pageHeight="1169" math="0" shadow="0">
      <root>
        <mxCell id="0" />
        <mxCell id="1" parent="0" />
        <mxCell id="DmrIsuX3qjrNEGf2w7l_-4" value="" style="edgeStyle=orthogonalEdgeStyle;rounded=0;orthogonalLoop=1;jettySize=auto;html=1;" parent="1" source="DmrIsuX3qjrNEGf2w7l_-1" target="DmrIsuX3qjrNEGf2w7l_-2" edge="1">
          <mxGeometry relative="1" as="geometry" />
        </mxCell>
        <mxCell id="DmrIsuX3qjrNEGf2w7l_-1" value="Start" style="ellipse;whiteSpace=wrap;html=1;" parent="1" vertex="1">
          <mxGeometry x="340" y="20" width="200" height="80" as="geometry" />
        </mxCell>
        <mxCell id="DmrIsuX3qjrNEGf2w7l_-5" value="" style="edgeStyle=orthogonalEdgeStyle;rounded=0;orthogonalLoop=1;jettySize=auto;html=1;" parent="1" source="DmrIsuX3qjrNEGf2w7l_-2" target="DmrIsuX3qjrNEGf2w7l_-3" edge="1">
          <mxGeometry relative="1" as="geometry" />
        </mxCell>
        <mxCell id="DmrIsuX3qjrNEGf2w7l_-2" value="String array" style="shape=parallelogram;perimeter=parallelogramPerimeter;whiteSpace=wrap;html=1;fixedSize=1;" parent="1" vertex="1">
          <mxGeometry x="340" y="120" width="200" height="60" as="geometry" />
        </mxCell>
        <mxCell id="DmrIsuX3qjrNEGf2w7l_-7" value="" style="edgeStyle=orthogonalEdgeStyle;rounded=0;orthogonalLoop=1;jettySize=auto;html=1;" parent="1" source="DmrIsuX3qjrNEGf2w7l_-3" target="DmrIsuX3qjrNEGf2w7l_-6" edge="1">
          <mxGeometry relative="1" as="geometry" />
        </mxCell>
        <mxCell id="DmrIsuX3qjrNEGf2w7l_-3" value="i = 0&lt;div&gt;counter = 0&lt;/div&gt;" style="rounded=0;whiteSpace=wrap;html=1;" parent="1" vertex="1">
          <mxGeometry x="345" y="210" width="190" height="60" as="geometry" />
        </mxCell>
        <mxCell id="DmrIsuX3qjrNEGf2w7l_-16" value="" style="edgeStyle=orthogonalEdgeStyle;rounded=0;orthogonalLoop=1;jettySize=auto;html=1;" parent="1" source="DmrIsuX3qjrNEGf2w7l_-6" target="DmrIsuX3qjrNEGf2w7l_-8" edge="1">
          <mxGeometry relative="1" as="geometry" />
        </mxCell>
        <mxCell id="DmrIsuX3qjrNEGf2w7l_-17" value="Yes" style="edgeLabel;html=1;align=center;verticalAlign=middle;resizable=0;points=[];" parent="DmrIsuX3qjrNEGf2w7l_-16" vertex="1" connectable="0">
          <mxGeometry x="0.28" y="1" relative="1" as="geometry">
            <mxPoint as="offset" />
          </mxGeometry>
        </mxCell>
        <mxCell id="biMzU_7ksh4VcJnmH20E-18" style="edgeStyle=orthogonalEdgeStyle;rounded=0;orthogonalLoop=1;jettySize=auto;html=1;entryX=1;entryY=0.5;entryDx=0;entryDy=0;" edge="1" parent="1" source="DmrIsuX3qjrNEGf2w7l_-6" target="DmrIsuX3qjrNEGf2w7l_-18">
          <mxGeometry relative="1" as="geometry">
            <Array as="points">
              <mxPoint x="660" y="330" />
              <mxPoint x="660" y="740" />
            </Array>
          </mxGeometry>
        </mxCell>
        <mxCell id="biMzU_7ksh4VcJnmH20E-19" value="No" style="edgeLabel;html=1;align=center;verticalAlign=middle;resizable=0;points=[];" vertex="1" connectable="0" parent="biMzU_7ksh4VcJnmH20E-18">
          <mxGeometry x="-0.8364" y="1" relative="1" as="geometry">
            <mxPoint as="offset" />
          </mxGeometry>
        </mxCell>
        <mxCell id="DmrIsuX3qjrNEGf2w7l_-6" value="i &amp;lt; array.Length" style="rhombus;whiteSpace=wrap;html=1;" parent="1" vertex="1">
          <mxGeometry x="380" y="290" width="120" height="80" as="geometry" />
        </mxCell>
        <mxCell id="biMzU_7ksh4VcJnmH20E-21" value="" style="edgeStyle=orthogonalEdgeStyle;rounded=0;orthogonalLoop=1;jettySize=auto;html=1;" edge="1" parent="1" source="DmrIsuX3qjrNEGf2w7l_-8" target="DmrIsuX3qjrNEGf2w7l_-12">
          <mxGeometry relative="1" as="geometry" />
        </mxCell>
        <mxCell id="biMzU_7ksh4VcJnmH20E-24" value="Yes" style="edgeLabel;html=1;align=center;verticalAlign=middle;resizable=0;points=[];" vertex="1" connectable="0" parent="biMzU_7ksh4VcJnmH20E-21">
          <mxGeometry x="-0.1333" relative="1" as="geometry">
            <mxPoint as="offset" />
          </mxGeometry>
        </mxCell>
        <mxCell id="biMzU_7ksh4VcJnmH20E-22" style="edgeStyle=orthogonalEdgeStyle;rounded=0;orthogonalLoop=1;jettySize=auto;html=1;entryX=1;entryY=0.5;entryDx=0;entryDy=0;" edge="1" parent="1" source="DmrIsuX3qjrNEGf2w7l_-8" target="DmrIsuX3qjrNEGf2w7l_-13">
          <mxGeometry relative="1" as="geometry">
            <Array as="points">
              <mxPoint x="580" y="440" />
              <mxPoint x="580" y="660" />
            </Array>
          </mxGeometry>
        </mxCell>
        <mxCell id="biMzU_7ksh4VcJnmH20E-23" value="No" style="edgeLabel;html=1;align=center;verticalAlign=middle;resizable=0;points=[];" vertex="1" connectable="0" parent="biMzU_7ksh4VcJnmH20E-22">
          <mxGeometry x="-0.8293" y="-1" relative="1" as="geometry">
            <mxPoint as="offset" />
          </mxGeometry>
        </mxCell>
        <mxCell id="DmrIsuX3qjrNEGf2w7l_-8" value="array[i].Length &amp;lt;=3" style="rhombus;whiteSpace=wrap;html=1;" parent="1" vertex="1">
          <mxGeometry x="375" y="400" width="130" height="80" as="geometry" />
        </mxCell>
        <mxCell id="biMzU_7ksh4VcJnmH20E-20" value="" style="edgeStyle=orthogonalEdgeStyle;rounded=0;orthogonalLoop=1;jettySize=auto;html=1;" edge="1" parent="1" source="DmrIsuX3qjrNEGf2w7l_-12" target="DmrIsuX3qjrNEGf2w7l_-13">
          <mxGeometry relative="1" as="geometry" />
        </mxCell>
        <mxCell id="DmrIsuX3qjrNEGf2w7l_-12" value="counter = counter +1" style="rounded=0;whiteSpace=wrap;html=1;" parent="1" vertex="1">
          <mxGeometry x="380" y="540" width="120" height="60" as="geometry" />
        </mxCell>
        <mxCell id="biMzU_7ksh4VcJnmH20E-25" style="edgeStyle=orthogonalEdgeStyle;rounded=0;orthogonalLoop=1;jettySize=auto;html=1;entryX=0;entryY=0.5;entryDx=0;entryDy=0;" edge="1" parent="1" source="DmrIsuX3qjrNEGf2w7l_-13" target="DmrIsuX3qjrNEGf2w7l_-6">
          <mxGeometry relative="1" as="geometry">
            <Array as="points">
              <mxPoint x="260" y="660" />
              <mxPoint x="260" y="330" />
            </Array>
          </mxGeometry>
        </mxCell>
        <mxCell id="DmrIsuX3qjrNEGf2w7l_-13" value="i = i + 1" style="rounded=0;whiteSpace=wrap;html=1;" parent="1" vertex="1">
          <mxGeometry x="380" y="630" width="120" height="60" as="geometry" />
        </mxCell>
        <mxCell id="biMzU_7ksh4VcJnmH20E-17" value="" style="edgeStyle=orthogonalEdgeStyle;rounded=0;orthogonalLoop=1;jettySize=auto;html=1;" edge="1" parent="1" source="DmrIsuX3qjrNEGf2w7l_-18" target="biMzU_7ksh4VcJnmH20E-1">
          <mxGeometry relative="1" as="geometry" />
        </mxCell>
        <mxCell id="DmrIsuX3qjrNEGf2w7l_-18" value="Сreate resultArray[counter]&lt;div&gt;j = 0&lt;/div&gt;&lt;div&gt;i = 0&lt;/div&gt;" style="rounded=0;whiteSpace=wrap;html=1;" parent="1" vertex="1">
          <mxGeometry x="352" y="710" width="176" height="60" as="geometry" />
        </mxCell>
        <mxCell id="biMzU_7ksh4VcJnmH20E-8" style="edgeStyle=orthogonalEdgeStyle;rounded=0;orthogonalLoop=1;jettySize=auto;html=1;entryX=1;entryY=0.5;entryDx=0;entryDy=0;" edge="1" parent="1" source="biMzU_7ksh4VcJnmH20E-1" target="biMzU_7ksh4VcJnmH20E-5">
          <mxGeometry relative="1" as="geometry">
            <Array as="points">
              <mxPoint x="640" y="850" />
              <mxPoint x="640" y="1280" />
            </Array>
          </mxGeometry>
        </mxCell>
        <mxCell id="biMzU_7ksh4VcJnmH20E-10" value="No" style="edgeLabel;html=1;align=center;verticalAlign=middle;resizable=0;points=[];" vertex="1" connectable="0" parent="biMzU_7ksh4VcJnmH20E-8">
          <mxGeometry x="-0.8791" y="-2" relative="1" as="geometry">
            <mxPoint as="offset" />
          </mxGeometry>
        </mxCell>
        <mxCell id="biMzU_7ksh4VcJnmH20E-9" value="" style="edgeStyle=orthogonalEdgeStyle;rounded=0;orthogonalLoop=1;jettySize=auto;html=1;" edge="1" parent="1" source="biMzU_7ksh4VcJnmH20E-1" target="biMzU_7ksh4VcJnmH20E-2">
          <mxGeometry relative="1" as="geometry" />
        </mxCell>
        <mxCell id="biMzU_7ksh4VcJnmH20E-11" value="Yes" style="edgeLabel;html=1;align=center;verticalAlign=middle;resizable=0;points=[];" vertex="1" connectable="0" parent="biMzU_7ksh4VcJnmH20E-9">
          <mxGeometry x="-0.16" y="-1" relative="1" as="geometry">
            <mxPoint as="offset" />
          </mxGeometry>
        </mxCell>
        <mxCell id="biMzU_7ksh4VcJnmH20E-1" value="i &amp;lt; array.Length" style="rhombus;whiteSpace=wrap;html=1;" vertex="1" parent="1">
          <mxGeometry x="365" y="810" width="150" height="80" as="geometry" />
        </mxCell>
        <mxCell id="biMzU_7ksh4VcJnmH20E-12" style="edgeStyle=orthogonalEdgeStyle;rounded=0;orthogonalLoop=1;jettySize=auto;html=1;entryX=1;entryY=0.5;entryDx=0;entryDy=0;" edge="1" parent="1" source="biMzU_7ksh4VcJnmH20E-2" target="biMzU_7ksh4VcJnmH20E-4">
          <mxGeometry relative="1" as="geometry">
            <Array as="points">
              <mxPoint x="590" y="980" />
              <mxPoint x="590" y="1180" />
            </Array>
          </mxGeometry>
        </mxCell>
        <mxCell id="biMzU_7ksh4VcJnmH20E-13" value="No" style="edgeLabel;html=1;align=center;verticalAlign=middle;resizable=0;points=[];" vertex="1" connectable="0" parent="biMzU_7ksh4VcJnmH20E-12">
          <mxGeometry x="-0.8457" relative="1" as="geometry">
            <mxPoint as="offset" />
          </mxGeometry>
        </mxCell>
        <mxCell id="biMzU_7ksh4VcJnmH20E-14" value="" style="edgeStyle=orthogonalEdgeStyle;rounded=0;orthogonalLoop=1;jettySize=auto;html=1;" edge="1" parent="1" source="biMzU_7ksh4VcJnmH20E-2" target="biMzU_7ksh4VcJnmH20E-3">
          <mxGeometry relative="1" as="geometry" />
        </mxCell>
        <mxCell id="biMzU_7ksh4VcJnmH20E-15" value="Yes" style="edgeLabel;html=1;align=center;verticalAlign=middle;resizable=0;points=[];" vertex="1" connectable="0" parent="biMzU_7ksh4VcJnmH20E-14">
          <mxGeometry x="0.28" y="1" relative="1" as="geometry">
            <mxPoint as="offset" />
          </mxGeometry>
        </mxCell>
        <mxCell id="biMzU_7ksh4VcJnmH20E-2" value="array[i].Length &amp;lt;= 3" style="rhombus;whiteSpace=wrap;html=1;" vertex="1" parent="1">
          <mxGeometry x="360" y="940" width="160" height="80" as="geometry" />
        </mxCell>
        <mxCell id="biMzU_7ksh4VcJnmH20E-3" value="resultarray[j] = array [i]&lt;div&gt;j = j + 1&lt;/div&gt;" style="rounded=0;whiteSpace=wrap;html=1;" vertex="1" parent="1">
          <mxGeometry x="367.5" y="1050" width="145" height="60" as="geometry" />
        </mxCell>
        <mxCell id="biMzU_7ksh4VcJnmH20E-4" value="i = i + i" style="rounded=0;whiteSpace=wrap;html=1;" vertex="1" parent="1">
          <mxGeometry x="368" y="1150" width="142" height="60" as="geometry" />
        </mxCell>
        <mxCell id="biMzU_7ksh4VcJnmH20E-7" value="" style="edgeStyle=orthogonalEdgeStyle;rounded=0;orthogonalLoop=1;jettySize=auto;html=1;" edge="1" parent="1" source="biMzU_7ksh4VcJnmH20E-5" target="biMzU_7ksh4VcJnmH20E-6">
          <mxGeometry relative="1" as="geometry" />
        </mxCell>
        <mxCell id="biMzU_7ksh4VcJnmH20E-16" style="edgeStyle=orthogonalEdgeStyle;rounded=0;orthogonalLoop=1;jettySize=auto;html=1;entryX=0;entryY=0.5;entryDx=0;entryDy=0;" edge="1" parent="1" source="biMzU_7ksh4VcJnmH20E-5" target="biMzU_7ksh4VcJnmH20E-1">
          <mxGeometry relative="1" as="geometry">
            <Array as="points">
              <mxPoint x="260" y="1280" />
              <mxPoint x="260" y="850" />
            </Array>
          </mxGeometry>
        </mxCell>
        <mxCell id="biMzU_7ksh4VcJnmH20E-5" value="result Array" style="shape=parallelogram;perimeter=parallelogramPerimeter;whiteSpace=wrap;html=1;fixedSize=1;" vertex="1" parent="1">
          <mxGeometry x="365" y="1250" width="145" height="60" as="geometry" />
        </mxCell>
        <mxCell id="biMzU_7ksh4VcJnmH20E-6" value="End" style="ellipse;whiteSpace=wrap;html=1;" vertex="1" parent="1">
          <mxGeometry x="371.5" y="1350" width="132" height="80" as="geometry" />
        </mxCell>
      </root>
    </mxGraphModel>
  </diagram>
</mxfile>
